<svg xmlns="http://www.w3.org/2000/svg" x="0px" y="0px"
     width="100" height="100"
     viewBox="0 0 252 252"
     style="fill:#ffffff;"><g fill="none" fill-rule="nonzero" stroke="none" stroke-width="1" stroke-linecap="butt" stroke-linejoin="miter" stroke-miterlimit="10" stroke-dasharray="" stroke-dashoffset="0" font-family="none" font-weight="none" font-size="none" text-anchor="none" style="mix-blend-mode: normal"><path d="M0,252v-252h252v252z" fill="none"></path><g><g id="surface1"><path d="M206.8418,120.75l-4.18359,-21l-66.15821,13.65821v-71.40821h-21v64.5791l-72.96679,-47.25l-11.56641,17.8418l79.81641,51.4541l-61.44141,80.3291l16.81641,12.5918l59.30859,-77.7041l44.1123,66.69141l17.8418,-11.56641l-44.0918,-65.625z" fill="#cfd8dc"></path><path d="M162.75,126c0,20.30274 -16.44726,36.75 -36.75,36.75c-20.30273,0 -36.75,-16.44726 -36.75,-36.75c0,-20.30273 16.44727,-36.75 36.75,-36.75c20.30274,0 36.75,16.44727 36.75,36.75z" fill="#d62246"></path><path d="M152.25,42c0,14.49902 -11.75098,26.25 -26.25,26.25c-14.49902,0 -26.25,-11.75098 -26.25,-26.25c0,-14.49902 11.75098,-26.25 26.25,-26.25c14.49902,0 26.25,11.75098 26.25,26.25z" fill="#3da35d"></path><path d="M231,110.25c0,14.49902 -11.75098,26.25 -26.25,26.25c-14.49902,0 -26.25,-11.75098 -26.25,-26.25c0,-14.49902 11.75098,-26.25 26.25,-26.25c14.49902,0 26.25,11.75098 26.25,26.25z" fill="#3da35d"></path><path d="M63,68.25c0,14.49902 -11.75098,26.25 -26.25,26.25c-14.49902,0 -26.25,-11.75098 -26.25,-26.25c0,-14.49902 11.75098,-26.25 26.25,-26.25c14.49902,0 26.25,11.75098 26.25,26.25z" fill="#3da35d"></path><path d="M84,215.25c0,14.49902 -11.75098,26.25 -26.25,26.25c-14.49902,0 -26.25,-11.75098 -26.25,-26.25c0,-14.49902 11.75098,-26.25 26.25,-26.25c14.49902,0 26.25,11.75098 26.25,26.25z" fill="#3da35d"></path><path d="M204.75,204.75c0,14.49902 -11.75098,26.25 -26.25,26.25c-14.49902,0 -26.25,-11.75098 -26.25,-26.25c0,-14.49902 11.75098,-26.25 26.25,-26.25c14.49902,0 26.25,11.75098 26.25,26.25z" fill="#3da35d"></path></g></g></g></svg>
